<svg width="24" height="24" viewBox="0 0 24 24" fill="none" xmlns="http://www.w3.org/2000/svg">
<path d="M9.17157 16.8181L7.75735 18.2323L12 22.4749L16.2426 18.2323L14.8284 16.8181L12 19.6465L9.17157 16.8181Z" fill="black"/>
<path d="M14.8284 7.18191L16.2426 5.7677L12 1.52505L7.75736 5.7677L9.17158 7.18191L12 4.35348L14.8284 7.18191Z" fill="black"/>
<path fill-rule="evenodd" clip-rule="evenodd" d="M12 9.00008C13.6569 9.00008 15 10.3432 15 12.0001C15 13.6569 13.6569 15.0001 12 15.0001C10.3432 15.0001 9.00003 13.6569 9.00003 12.0001C9.00003 10.3432 10.3432 9.00008 12 9.00008ZM12 11.0001C12.5523 11.0001 13 11.4478 13 12.0001C13 12.5524 12.5523 13.0001 12 13.0001C11.4477 13.0001 11 12.5524 11 12.0001C11 11.4478 11.4477 11.0001 12 11.0001Z" fill="black"/>
</svg>
