<svg width="24" height="24" viewBox="0 0 24 24" fill="none" xmlns="http://www.w3.org/2000/svg">
<path d="M5.33929 4.46783H7.33929V7.02493C8.52931 6.08984 10.0299 5.53214 11.6607 5.53214C15.5267 5.53214 18.6607 8.66614 18.6607 12.5321C18.6607 16.3981 15.5267 19.5321 11.6607 19.5321C9.51025 19.5321 7.58625 18.5624 6.30219 17.0364L7.92151 15.8516C8.83741 16.8826 10.1732 17.5321 11.6607 17.5321C14.4222 17.5321 16.6607 15.2936 16.6607 12.5321C16.6607 9.77071 14.4222 7.53214 11.6607 7.53214C10.5739 7.53214 9.56805 7.8789 8.74779 8.46783L11.3393 8.46783V10.4678H5.33929V4.46783Z" fill="black"/>
</svg>
