<svg width="24" height="24" viewBox="0 0 24 24" fill="none" xmlns="http://www.w3.org/2000/svg">
<path d="M14.8284 12.4813L16.2426 11.0671L12 6.8245L7.75732 11.0671L9.17154 12.4814L12 9.65292L14.8284 12.4813Z" fill="black"/>
<path d="M14.8284 16.7239L16.2426 15.3097L12 11.0671L7.75732 15.3098L9.17154 16.724L12 13.8955L14.8284 16.7239Z" fill="black"/>
<path fill-rule="evenodd" clip-rule="evenodd" d="M23 4.77417C23 2.56503 21.2091 0.77417 19 0.77417H5C2.79086 0.77417 1 2.56503 1 4.77417V18.7742C1 20.9833 2.79086 22.7742 5 22.7742H19C21.2091 22.7742 23 20.9833 23 18.7742V4.77417ZM19 2.77417H5C3.89543 2.77417 3 3.6696 3 4.77417V18.7742C3 19.8787 3.89543 20.7742 5 20.7742H19C20.1046 20.7742 21 19.8787 21 18.7742V4.77417C21 3.6696 20.1046 2.77417 19 2.77417Z" fill="black"/>
</svg>
