<svg width="24" height="24" viewBox="0 0 24 24" fill="none" xmlns="http://www.w3.org/2000/svg">
<path fill-rule="evenodd" clip-rule="evenodd" d="M7 4.05438C4.23858 4.05438 2 6.29296 2 9.05438C2 11.8158 4.23858 14.0544 7 14.0544C9.76142 14.0544 12 11.8158 12 9.05438C12 6.29296 9.76142 4.05438 7 4.05438ZM5 9.05438C5 10.159 5.89543 11.0544 7 11.0544C8.10457 11.0544 9 10.159 9 9.05438C9 7.94981 8.10457 7.05438 7 7.05438C5.89543 7.05438 5 7.94981 5 9.05438Z" fill="black"/>
<path d="M22 10.5544H17V7.55438H22V10.5544Z" fill="black"/>
<path d="M11.5503 16.9456C12.6786 16.9456 13.6977 16.4785 14.4249 15.7271C14.4097 15.7429 14.3943 15.7585 14.3788 15.774L16.5001 17.8953C15.2334 19.1621 13.4834 19.9456 11.5503 19.9456C9.61734 19.9456 7.86734 19.1621 6.60059 17.8954L8.72191 15.774C9.44576 16.4979 10.4458 16.9456 11.5503 16.9456Z" fill="black"/>
</svg>
