<svg width="24" height="24" viewBox="0 0 24 24" fill="none" xmlns="http://www.w3.org/2000/svg">
<path d="M7.17228 18.025C5.81668 17.2863 4.69529 16.1662 3.95532 14.7911C3.0167 13.0469 2.75853 11.0164 3.23077 9.09282C3.70301 7.1692 4.87208 5.48916 6.51171 4.37787C8.15133 3.26658 10.1449 2.80307 12.1066 3.07704L11.6701 6.20271C10.4823 6.03682 9.27516 6.31747 8.28237 6.99036C7.28957 7.66324 6.5817 8.68051 6.29576 9.84526C6.00982 11.01 6.16615 12.2394 6.73448 13.2956C7.18253 14.1282 7.86154 14.8064 8.68237 15.2537L14.8279 3.97549L17.4622 5.41092C18.8178 6.14958 19.9391 7.26973 20.6791 8.64481C21.6177 10.389 21.8759 12.4195 21.4037 14.3431C20.9314 16.2667 19.7623 17.9468 18.1227 19.058C16.4831 20.1693 14.4895 20.6328 12.5278 20.3589L12.9643 17.2332C14.1521 17.3991 15.3593 17.1184 16.3521 16.4456C17.3448 15.7727 18.0527 14.7554 18.3387 13.5906C18.6246 12.4259 18.4683 11.1965 17.8999 10.1403C17.4519 9.30773 16.7729 8.6295 15.9521 8.18224L9.80653 19.4605L7.17228 18.025Z" fill="black"/>
</svg>
