<svg width="24" height="24" viewBox="0 0 24 24" fill="none" xmlns="http://www.w3.org/2000/svg">
<path fill-rule="evenodd" clip-rule="evenodd" d="M12 2C6.47715 2 2 6.47715 2 12C2 17.5228 6.47715 22 12 22C17.5228 22 22 17.5228 22 12C22 6.47715 17.5228 2 12 2ZM4 12C4 16.4183 7.58172 20 12 20C16.4183 20 20 16.4183 20 12C20 7.58172 16.4183 4 12 4C7.58172 4 4 7.58172 4 12Z" fill="black"/>
<path d="M11.1891 16.6791C11.1891 16.2257 11.5566 15.8582 12.01 15.8582C12.4633 15.8582 12.8308 16.2257 12.8308 16.6791C12.8308 17.1325 12.4633 17.5 12.01 17.5C11.5566 17.5 11.1891 17.1325 11.1891 16.6791ZM12.2836 6.5C15.2388 6.6204 16.5194 9.59751 14.7791 11.8194C14.3194 12.3667 13.5861 12.7279 13.2139 13.1985C13.0241 13.4318 12.9283 13.6839 12.88 13.9455C12.7977 14.3913 12.4633 14.7637 12.01 14.7637C11.5566 14.7637 11.1803 14.3958 11.2006 13.9429C11.2261 13.3725 11.3081 12.8861 11.5721 12.509C11.9333 11.9617 12.6667 11.6333 13.1264 11.2721C14.4726 10.0353 14.1224 8.29503 12.2836 8.15274C11.6654 8.15274 11.12 8.5006 10.8403 9.01754C10.6246 9.41629 10.2743 9.80547 9.8209 9.80547C9.36753 9.80547 8.98956 9.43233 9.10026 8.99269C9.4613 7.55886 10.7548 6.5 12.2836 6.5Z" fill="black"/>
</svg>
