<svg width="24" height="24" viewBox="0 0 24 24" fill="none" xmlns="http://www.w3.org/2000/svg">
<path d="M11.939 9.76471C11.7056 10.2653 11.1106 10.4818 10.61 10.2484C10.1095 10.015 9.89294 9.42002 10.1263 8.91948C10.3598 8.41894 10.9547 8.20238 11.4553 8.43579C11.9558 8.66919 12.1724 9.26417 11.939 9.76471Z" fill="black"/>
<path d="M8.91956 13.8736C9.4201 14.107 10.0151 13.8905 10.2485 13.3899C10.4819 12.8894 10.2653 12.2944 9.7648 12.061C9.26426 11.8276 8.66928 12.0442 8.43587 12.5447C8.20247 13.0452 8.41902 13.6402 8.91956 13.8736Z" fill="black"/>
<path d="M13.8737 15.0804C13.6403 15.581 13.0453 15.7975 12.5448 15.5641C12.0443 15.3307 11.8277 14.7357 12.0611 14.2352C12.2945 13.7346 12.8895 13.5181 13.39 13.7515C13.8906 13.9849 14.1071 14.5799 13.8737 15.0804Z" fill="black"/>
<path d="M14.2353 11.9389C14.7358 12.1723 15.3308 11.9557 15.5642 11.4552C15.7976 10.9546 15.581 10.3597 15.0805 10.1263C14.58 9.89285 13.985 10.1094 13.7516 10.61C13.5182 11.1105 13.7347 11.7055 14.2353 11.9389Z" fill="black"/>
<path fill-rule="evenodd" clip-rule="evenodd" d="M17.0715 1.12425C14.0682 -0.27618 10.4983 1.02315 9.0979 4.02639L4.02648 14.9021C2.62604 17.9053 3.92537 21.4752 6.92861 22.8756C9.93185 24.2761 13.5017 22.9767 14.9022 19.9735L19.9736 9.09781C21.374 6.09457 20.0747 2.52469 17.0715 1.12425ZM13.9348 17.3157L17.3157 10.0652L10.0653 6.68424L6.68433 13.9347L13.9348 17.3157ZM13.0896 19.1283L5.83909 15.7473C4.90547 17.7495 5.77169 20.1294 7.77385 21.063C9.77601 21.9966 12.1559 21.1304 13.0896 19.1283ZM16.2262 2.93687C18.2284 3.87049 19.0946 6.25041 18.161 8.25257L10.9105 4.87163C11.8441 2.86947 14.2241 2.00325 16.2262 2.93687Z" fill="black"/>
</svg>
