<svg width="24" height="24" viewBox="0 0 24 24" fill="none" xmlns="http://www.w3.org/2000/svg">
<g clip-path="url(#clip0)">
<path d="M23.5491 8.31172L12.2982 3.43636C12.108 3.3539 11.892 3.3539 11.7018 3.43636L0.45093 8.31172C-0.15024 8.57222 -0.15038 9.42761 0.45093 9.68812L4.49945 11.4425V16.1254C4.49945 18.649 7.79407 20.6258 12 20.6258C16.2059 20.6258 19.5006 18.649 19.5006 16.1254V11.4425L20.2506 11.1174V19.1256C20.2506 19.5399 20.5865 19.8757 21.0007 19.8757C21.4149 19.8757 21.7507 19.5399 21.7507 19.1256V10.4674L23.5491 9.68816C24.1503 9.42766 24.1503 8.57227 23.5491 8.31172ZM12 4.942L21.3644 8.99994L20.6217 9.32176L12.093 8.25565C11.6819 8.2046 11.3071 8.49586 11.2557 8.90689C11.2043 9.31792 11.4959 9.6928 11.907 9.74418L17.9141 10.4951L12 13.0578C6.70944 10.7652 7.83626 11.2535 2.63561 8.99989L12 4.942ZM18.0005 16.1255C18.0005 16.8322 17.4204 17.5598 16.4091 18.1216C14.0004 19.4598 10.0066 19.4637 7.59094 18.1216C6.57959 17.5598 5.99956 16.8322 5.99956 16.1255V12.0926L11.7018 14.5635C11.8917 14.6458 12.1076 14.6461 12.2982 14.5635L18.0005 12.0926V16.1255Z" fill="black"/>
</g>
<defs>
<clipPath id="clip0">
<rect width="24" height="24" fill="white"/>
</clipPath>
</defs>
</svg>
