<svg width="24" height="24" viewBox="0 0 24 24" fill="none" xmlns="http://www.w3.org/2000/svg">
<path d="M20.274 9.86883L16.8325 4.95392L18.4708 3.80676L21.9123 8.72167L20.274 9.86883Z" fill="black"/>
<path d="M18.3901 12.4086L16.6694 9.95121L8.47789 15.687L10.1986 18.1444L8.56029 19.2916L3.97168 12.7383L5.60998 11.5912L7.33074 14.0487L15.5223 8.31291L13.8015 5.8554L15.4398 4.70825L20.0284 11.2615L18.3901 12.4086Z" fill="black"/>
<path d="M20.7651 7.08331L22.4034 5.93616L21.2563 4.29785L19.618 5.445L20.7651 7.08331Z" fill="black"/>
<path d="M7.16759 19.046L3.72613 14.131L2.08783 15.2782L5.52929 20.1931L7.16759 19.046Z" fill="black"/>
<path d="M4.38214 18.5549L2.74383 19.702L1.59668 18.0637L3.23498 16.9166L4.38214 18.5549Z" fill="black"/>
</svg>
