<svg width="24" height="24" viewBox="0 0 24 24" fill="none" xmlns="http://www.w3.org/2000/svg">
<path d="M18 16.634C18 17.1863 17.5523 17.634 17 17.634C16.4477 17.634 16 17.1863 16 16.634C16 16.0817 16.4477 15.634 17 15.634C17.5523 15.634 18 16.0817 18 16.634Z" fill="black"/>
<path fill-rule="evenodd" clip-rule="evenodd" d="M5.86603 3.13402C5.38773 2.85788 4.77614 3.02175 4.5 3.50004C4.22386 3.97834 4.38773 4.58993 4.86603 4.86607L18.3205 12.634H2V16.634C2 18.8432 3.79086 20.634 6 20.634H18C20.2091 20.634 22 18.8432 22 16.634V12.634L5.86603 3.13402ZM20 14.634H4V16.634C4 17.7386 4.89543 18.634 6 18.634H18C19.1046 18.634 20 17.7386 20 16.634V14.634Z" fill="black"/>
</svg>
