<svg width="24" height="24" viewBox="0 0 24 24" fill="none" xmlns="http://www.w3.org/2000/svg">
<path fill-rule="evenodd" clip-rule="evenodd" d="M12.2256 2.00265C9.59172 1.94358 6.93894 2.91902 4.92893 4.92903C1.02369 8.83428 1.02369 15.1659 4.92893 19.0712C8.83418 22.9764 15.1658 22.9764 19.0711 19.0712C21.0811 17.0612 22.0565 14.4084 21.9975 11.7745C21.9796 10.9773 21.8669 10.1819 21.6595 9.40655C21.0933 9.94892 20.5078 10.4277 19.9163 10.8426C18.5649 11.7907 17.1826 12.4054 15.9301 12.6838C14.0241 13.1073 12.7156 12.7157 12 12.0001C11.2844 11.2845 10.8928 9.976 11.3163 8.07002C11.5947 6.8175 12.2094 5.43523 13.1575 4.0838C13.5724 3.49233 14.0512 2.90677 14.5935 2.34058C13.8182 2.13317 13.0228 2.02053 12.2256 2.00265ZM17.6569 17.657C18.9081 16.4058 19.6582 14.8432 19.9072 13.2187C16.3611 15.2645 12.638 15.4665 10.5858 13.4143C8.53361 11.3621 8.73568 7.63907 10.7814 4.09293C9.1569 4.34196 7.59434 5.09205 6.34315 6.34325C3.21895 9.46744 3.21895 14.5328 6.34315 17.657C9.46734 20.7812 14.5327 20.7812 17.6569 17.657Z" fill="black"/>
</svg>
