<svg width="24" height="24" viewBox="0 0 24 24" fill="none" xmlns="http://www.w3.org/2000/svg">
<path d="M16.6818 15.7528L18.8116 17.8826C20.1752 16.3051 21 14.2488 21 12C21 9.78734 20.2016 7.76121 18.8771 6.19397L16.7444 8.32659C17.5315 9.34165 18 10.6161 18 12C18 13.4202 17.5066 14.7252 16.6818 15.7528Z" fill="black" fill-opacity="0.5"/>
<path d="M15.6734 16.7445C14.6583 17.5315 13.3839 18 12 18C8.68629 18 6 15.3137 6 12C6 8.68629 8.68629 6 12 6C13.4202 6 14.7252 6.49344 15.7528 7.31823L17.8826 5.18843C16.3051 3.82482 14.2489 3 12 3C7.02944 3 3 7.02944 3 12C3 16.9706 7.02944 21 12 21C14.2126 21 16.2387 20.2016 17.806 18.8771L15.6734 16.7445Z" fill="black"/>
</svg>
