<svg width="24" height="24" viewBox="0 0 24 24" fill="none" xmlns="http://www.w3.org/2000/svg">
<path d="M12.2416 15.5458C12.0916 15.4553 12 15.293 12 15.1178V8.55842C12 8.01369 12.7475 7.86166 12.9603 8.36311L13.5922 9.85246C13.6647 10.0232 13.8256 10.1398 14.0104 10.1554L16.9125 10.4005C17.3527 10.4377 17.5319 10.9858 17.1987 11.2759L14.9965 13.1928C14.8571 13.3142 14.796 13.5025 14.8377 13.6826L15.4936 16.5183C15.5932 16.9488 15.1263 17.2874 14.7481 17.0591L12.2416 15.5458ZM21.1043 10.0159C21.4386 9.72634 21.2599 9.17721 20.8192 9.13982L15.1104 8.65549C14.9256 8.63981 14.7647 8.52314 14.6923 8.35239L12.4604 3.08619C12.2881 2.67967 11.7119 2.67967 11.5396 3.08618L9.30766 8.35239C9.23529 8.52314 9.07436 8.63981 8.88957 8.65549L3.17932 9.13995C2.73882 9.17732 2.55999 9.72601 2.89386 10.0158L7.22266 13.7727C7.36252 13.8941 7.42384 14.0828 7.38201 14.2632L6.08715 19.8478C5.98732 20.2784 6.45421 20.6172 6.83259 20.3888L11.7416 17.4259C11.9005 17.33 12.0995 17.33 12.2584 17.4259L17.1655 20.3877C17.5442 20.6162 18.0113 20.2767 17.9108 19.846L16.6086 14.2639C16.5664 14.0832 16.6278 13.8939 16.7681 13.7724L21.1043 10.0159Z" fill="black"/>
</svg>
